<mxfile host="app.diagrams.net" agent="Mozilla/5.0 (Windows NT 10.0; Win64; x64) AppleWebKit/537.36 (KHTML, like Gecko) Chrome/131.0.0.0 Safari/537.36" version="25.0.3">
  <diagram name="Page-1" id="n38M5JFeNuQ6cD_mAk6k">
    <mxGraphModel dx="1750" dy="870" grid="1" gridSize="10" guides="1" tooltips="1" connect="1" arrows="1" fold="1" page="1" pageScale="1" pageWidth="850" pageHeight="1100" math="0" shadow="0">
      <root>
        <mxCell id="0" />
        <mxCell id="1" parent="0" />
        <mxCell id="mbKit9BLrTyehjeJolwP-37" value="" style="group;fillColor=default;" vertex="1" connectable="0" parent="1">
          <mxGeometry x="15" y="40" width="385" height="205" as="geometry" />
        </mxCell>
        <mxCell id="mbKit9BLrTyehjeJolwP-15" value="" style="group" vertex="1" connectable="0" parent="mbKit9BLrTyehjeJolwP-37">
          <mxGeometry x="35" y="75" width="350" height="130" as="geometry" />
        </mxCell>
        <mxCell id="mbKit9BLrTyehjeJolwP-9" value="" style="rounded=1;whiteSpace=wrap;html=1;" vertex="1" parent="mbKit9BLrTyehjeJolwP-15">
          <mxGeometry width="350" height="130" as="geometry" />
        </mxCell>
        <mxCell id="mbKit9BLrTyehjeJolwP-1" value="" style="html=1;whiteSpace=wrap;shape=isoCube2;backgroundOutline=1;isoAngle=15;" vertex="1" parent="mbKit9BLrTyehjeJolwP-15">
          <mxGeometry x="120" y="15" width="90" height="100" as="geometry" />
        </mxCell>
        <mxCell id="mbKit9BLrTyehjeJolwP-2" value="" style="endArrow=classic;html=1;rounded=0;" edge="1" parent="mbKit9BLrTyehjeJolwP-15">
          <mxGeometry width="50" height="50" relative="1" as="geometry">
            <mxPoint x="10" y="65" as="sourcePoint" />
            <mxPoint x="90" y="64.5" as="targetPoint" />
          </mxGeometry>
        </mxCell>
        <mxCell id="mbKit9BLrTyehjeJolwP-3" value="&lt;b&gt;&lt;font style=&quot;font-size: 15px;&quot;&gt;Year&lt;/font&gt;&lt;/b&gt;" style="text;html=1;align=center;verticalAlign=middle;resizable=0;points=[];autosize=1;strokeColor=none;fillColor=none;" vertex="1" parent="mbKit9BLrTyehjeJolwP-15">
          <mxGeometry x="20" y="25" width="60" height="30" as="geometry" />
        </mxCell>
        <mxCell id="mbKit9BLrTyehjeJolwP-4" value="" style="endArrow=classic;html=1;rounded=0;" edge="1" parent="mbKit9BLrTyehjeJolwP-15">
          <mxGeometry width="50" height="50" relative="1" as="geometry">
            <mxPoint x="230" y="65" as="sourcePoint" />
            <mxPoint x="310" y="64.5" as="targetPoint" />
          </mxGeometry>
        </mxCell>
        <mxCell id="mbKit9BLrTyehjeJolwP-5" value="&lt;b&gt;&lt;font style=&quot;font-size: 15px;&quot;&gt;Fertility Ratio&lt;/font&gt;&lt;/b&gt;" style="text;html=1;align=center;verticalAlign=middle;resizable=0;points=[];autosize=1;strokeColor=none;fillColor=none;" vertex="1" parent="mbKit9BLrTyehjeJolwP-15">
          <mxGeometry x="215" y="25" width="120" height="30" as="geometry" />
        </mxCell>
        <mxCell id="mbKit9BLrTyehjeJolwP-10" value="&lt;font style=&quot;font-size: 29px;&quot;&gt;&lt;b&gt;L&lt;/b&gt;&lt;/font&gt;" style="text;html=1;align=center;verticalAlign=middle;resizable=0;points=[];autosize=1;strokeColor=none;fillColor=none;" vertex="1" parent="mbKit9BLrTyehjeJolwP-15">
          <mxGeometry x="120" y="53" width="40" height="50" as="geometry" />
        </mxCell>
        <mxCell id="mbKit9BLrTyehjeJolwP-13" value="&lt;span style=&quot;font-size: 29px;&quot;&gt;&lt;b&gt;R&lt;/b&gt;&lt;/span&gt;" style="text;html=1;align=center;verticalAlign=middle;resizable=0;points=[];autosize=1;strokeColor=none;fillColor=none;" vertex="1" parent="mbKit9BLrTyehjeJolwP-15">
          <mxGeometry x="160" y="53" width="40" height="50" as="geometry" />
        </mxCell>
        <mxCell id="mbKit9BLrTyehjeJolwP-14" value="&lt;b&gt;&lt;font style=&quot;font-size: 15px;&quot;&gt;India&lt;/font&gt;&lt;/b&gt;" style="text;html=1;align=center;verticalAlign=middle;resizable=0;points=[];autosize=1;strokeColor=none;fillColor=none;" vertex="1" parent="mbKit9BLrTyehjeJolwP-15">
          <mxGeometry x="275" y="100" width="60" height="30" as="geometry" />
        </mxCell>
        <mxCell id="mbKit9BLrTyehjeJolwP-17" value="" style="group" vertex="1" connectable="0" parent="mbKit9BLrTyehjeJolwP-37">
          <mxGeometry x="15" y="40" width="350" height="130" as="geometry" />
        </mxCell>
        <mxCell id="mbKit9BLrTyehjeJolwP-18" value="" style="rounded=1;whiteSpace=wrap;html=1;" vertex="1" parent="mbKit9BLrTyehjeJolwP-17">
          <mxGeometry width="350" height="130" as="geometry" />
        </mxCell>
        <mxCell id="mbKit9BLrTyehjeJolwP-19" value="" style="html=1;whiteSpace=wrap;shape=isoCube2;backgroundOutline=1;isoAngle=15;" vertex="1" parent="mbKit9BLrTyehjeJolwP-17">
          <mxGeometry x="120" y="15" width="90" height="100" as="geometry" />
        </mxCell>
        <mxCell id="mbKit9BLrTyehjeJolwP-20" value="" style="endArrow=classic;html=1;rounded=0;" edge="1" parent="mbKit9BLrTyehjeJolwP-17">
          <mxGeometry width="50" height="50" relative="1" as="geometry">
            <mxPoint x="10" y="65" as="sourcePoint" />
            <mxPoint x="90" y="64.5" as="targetPoint" />
          </mxGeometry>
        </mxCell>
        <mxCell id="mbKit9BLrTyehjeJolwP-21" value="&lt;b&gt;&lt;font style=&quot;font-size: 15px;&quot;&gt;Year&lt;/font&gt;&lt;/b&gt;" style="text;html=1;align=center;verticalAlign=middle;resizable=0;points=[];autosize=1;strokeColor=none;fillColor=none;" vertex="1" parent="mbKit9BLrTyehjeJolwP-17">
          <mxGeometry x="20" y="25" width="60" height="30" as="geometry" />
        </mxCell>
        <mxCell id="mbKit9BLrTyehjeJolwP-22" value="" style="endArrow=classic;html=1;rounded=0;" edge="1" parent="mbKit9BLrTyehjeJolwP-17">
          <mxGeometry width="50" height="50" relative="1" as="geometry">
            <mxPoint x="230" y="65" as="sourcePoint" />
            <mxPoint x="310" y="64.5" as="targetPoint" />
          </mxGeometry>
        </mxCell>
        <mxCell id="mbKit9BLrTyehjeJolwP-23" value="&lt;b&gt;&lt;font style=&quot;font-size: 15px;&quot;&gt;Fertility Ratio&lt;/font&gt;&lt;/b&gt;" style="text;html=1;align=center;verticalAlign=middle;resizable=0;points=[];autosize=1;strokeColor=none;fillColor=none;" vertex="1" parent="mbKit9BLrTyehjeJolwP-17">
          <mxGeometry x="215" y="25" width="120" height="30" as="geometry" />
        </mxCell>
        <mxCell id="mbKit9BLrTyehjeJolwP-24" value="&lt;font style=&quot;font-size: 29px;&quot;&gt;&lt;b&gt;L&lt;/b&gt;&lt;/font&gt;" style="text;html=1;align=center;verticalAlign=middle;resizable=0;points=[];autosize=1;strokeColor=none;fillColor=none;" vertex="1" parent="mbKit9BLrTyehjeJolwP-17">
          <mxGeometry x="120" y="53" width="40" height="50" as="geometry" />
        </mxCell>
        <mxCell id="mbKit9BLrTyehjeJolwP-25" value="&lt;span style=&quot;font-size: 29px;&quot;&gt;&lt;b&gt;R&lt;/b&gt;&lt;/span&gt;" style="text;html=1;align=center;verticalAlign=middle;resizable=0;points=[];autosize=1;strokeColor=none;fillColor=none;" vertex="1" parent="mbKit9BLrTyehjeJolwP-17">
          <mxGeometry x="160" y="53" width="40" height="50" as="geometry" />
        </mxCell>
        <mxCell id="mbKit9BLrTyehjeJolwP-26" value="&lt;span style=&quot;font-size: 15px;&quot;&gt;&lt;b&gt;Germany&lt;/b&gt;&lt;/span&gt;" style="text;html=1;align=center;verticalAlign=middle;resizable=0;points=[];autosize=1;strokeColor=none;fillColor=none;" vertex="1" parent="mbKit9BLrTyehjeJolwP-17">
          <mxGeometry x="260" y="100" width="90" height="30" as="geometry" />
        </mxCell>
        <mxCell id="mbKit9BLrTyehjeJolwP-27" value="" style="group" vertex="1" connectable="0" parent="mbKit9BLrTyehjeJolwP-37">
          <mxGeometry width="365" height="130" as="geometry" />
        </mxCell>
        <mxCell id="mbKit9BLrTyehjeJolwP-28" value="" style="rounded=1;whiteSpace=wrap;html=1;" vertex="1" parent="mbKit9BLrTyehjeJolwP-27">
          <mxGeometry width="350" height="130" as="geometry" />
        </mxCell>
        <mxCell id="mbKit9BLrTyehjeJolwP-29" value="" style="html=1;whiteSpace=wrap;shape=isoCube2;backgroundOutline=1;isoAngle=15;" vertex="1" parent="mbKit9BLrTyehjeJolwP-27">
          <mxGeometry x="120" y="15" width="90" height="100" as="geometry" />
        </mxCell>
        <mxCell id="mbKit9BLrTyehjeJolwP-30" value="" style="endArrow=classic;html=1;rounded=0;" edge="1" parent="mbKit9BLrTyehjeJolwP-27">
          <mxGeometry width="50" height="50" relative="1" as="geometry">
            <mxPoint x="10" y="65" as="sourcePoint" />
            <mxPoint x="90" y="64.5" as="targetPoint" />
          </mxGeometry>
        </mxCell>
        <mxCell id="mbKit9BLrTyehjeJolwP-31" value="&lt;b&gt;&lt;font style=&quot;font-size: 15px;&quot;&gt;Year&lt;/font&gt;&lt;/b&gt;" style="text;html=1;align=center;verticalAlign=middle;resizable=0;points=[];autosize=1;strokeColor=none;fillColor=none;" vertex="1" parent="mbKit9BLrTyehjeJolwP-27">
          <mxGeometry x="20" y="25" width="60" height="30" as="geometry" />
        </mxCell>
        <mxCell id="mbKit9BLrTyehjeJolwP-32" value="" style="endArrow=classic;html=1;rounded=0;" edge="1" parent="mbKit9BLrTyehjeJolwP-27">
          <mxGeometry width="50" height="50" relative="1" as="geometry">
            <mxPoint x="230" y="65" as="sourcePoint" />
            <mxPoint x="310" y="64.5" as="targetPoint" />
          </mxGeometry>
        </mxCell>
        <mxCell id="mbKit9BLrTyehjeJolwP-33" value="&lt;b&gt;&lt;font style=&quot;font-size: 15px;&quot;&gt;Fertility Ratio&lt;/font&gt;&lt;/b&gt;" style="text;html=1;align=center;verticalAlign=middle;resizable=0;points=[];autosize=1;strokeColor=none;fillColor=none;" vertex="1" parent="mbKit9BLrTyehjeJolwP-27">
          <mxGeometry x="215" y="25" width="120" height="30" as="geometry" />
        </mxCell>
        <mxCell id="mbKit9BLrTyehjeJolwP-34" value="&lt;font style=&quot;font-size: 29px;&quot;&gt;&lt;b&gt;L&lt;/b&gt;&lt;/font&gt;" style="text;html=1;align=center;verticalAlign=middle;resizable=0;points=[];autosize=1;strokeColor=none;fillColor=none;" vertex="1" parent="mbKit9BLrTyehjeJolwP-27">
          <mxGeometry x="120" y="53" width="40" height="50" as="geometry" />
        </mxCell>
        <mxCell id="mbKit9BLrTyehjeJolwP-35" value="&lt;span style=&quot;font-size: 29px;&quot;&gt;&lt;b&gt;R&lt;/b&gt;&lt;/span&gt;" style="text;html=1;align=center;verticalAlign=middle;resizable=0;points=[];autosize=1;strokeColor=none;fillColor=none;" vertex="1" parent="mbKit9BLrTyehjeJolwP-27">
          <mxGeometry x="160" y="53" width="40" height="50" as="geometry" />
        </mxCell>
        <mxCell id="mbKit9BLrTyehjeJolwP-36" value="&lt;span style=&quot;font-size: 15px;&quot;&gt;&lt;b&gt;United States&lt;/b&gt;&lt;/span&gt;" style="text;html=1;align=center;verticalAlign=middle;resizable=0;points=[];autosize=1;strokeColor=none;fillColor=none;" vertex="1" parent="mbKit9BLrTyehjeJolwP-27">
          <mxGeometry x="230" y="100" width="120" height="30" as="geometry" />
        </mxCell>
        <mxCell id="mbKit9BLrTyehjeJolwP-58" value="" style="group" vertex="1" connectable="0" parent="1">
          <mxGeometry x="25" y="270" width="385" height="205" as="geometry" />
        </mxCell>
        <mxCell id="mbKit9BLrTyehjeJolwP-59" value="" style="group" vertex="1" connectable="0" parent="mbKit9BLrTyehjeJolwP-58">
          <mxGeometry x="35" y="75" width="350" height="130" as="geometry" />
        </mxCell>
        <mxCell id="mbKit9BLrTyehjeJolwP-60" value="" style="rounded=1;whiteSpace=wrap;html=1;" vertex="1" parent="mbKit9BLrTyehjeJolwP-59">
          <mxGeometry width="350" height="130" as="geometry" />
        </mxCell>
        <mxCell id="mbKit9BLrTyehjeJolwP-61" value="" style="html=1;whiteSpace=wrap;shape=isoCube2;backgroundOutline=1;isoAngle=15;" vertex="1" parent="mbKit9BLrTyehjeJolwP-59">
          <mxGeometry x="120" y="15" width="90" height="100" as="geometry" />
        </mxCell>
        <mxCell id="mbKit9BLrTyehjeJolwP-62" value="" style="endArrow=classic;html=1;rounded=0;" edge="1" parent="mbKit9BLrTyehjeJolwP-59">
          <mxGeometry width="50" height="50" relative="1" as="geometry">
            <mxPoint x="10" y="65" as="sourcePoint" />
            <mxPoint x="90" y="64.5" as="targetPoint" />
          </mxGeometry>
        </mxCell>
        <mxCell id="mbKit9BLrTyehjeJolwP-63" value="&lt;b&gt;&lt;font style=&quot;font-size: 15px;&quot;&gt;Year&lt;/font&gt;&lt;/b&gt;" style="text;html=1;align=center;verticalAlign=middle;resizable=0;points=[];autosize=1;strokeColor=none;fillColor=none;" vertex="1" parent="mbKit9BLrTyehjeJolwP-59">
          <mxGeometry x="20" y="25" width="60" height="30" as="geometry" />
        </mxCell>
        <mxCell id="mbKit9BLrTyehjeJolwP-64" value="" style="endArrow=classic;html=1;rounded=0;" edge="1" parent="mbKit9BLrTyehjeJolwP-59">
          <mxGeometry width="50" height="50" relative="1" as="geometry">
            <mxPoint x="230" y="65" as="sourcePoint" />
            <mxPoint x="310" y="64.5" as="targetPoint" />
          </mxGeometry>
        </mxCell>
        <mxCell id="mbKit9BLrTyehjeJolwP-65" value="&lt;b&gt;&lt;font style=&quot;font-size: 15px;&quot;&gt;Fertility Ratio&lt;/font&gt;&lt;/b&gt;" style="text;html=1;align=center;verticalAlign=middle;resizable=0;points=[];autosize=1;strokeColor=none;fillColor=none;" vertex="1" parent="mbKit9BLrTyehjeJolwP-59">
          <mxGeometry x="215" y="25" width="120" height="30" as="geometry" />
        </mxCell>
        <mxCell id="mbKit9BLrTyehjeJolwP-66" value="&lt;font style=&quot;font-size: 29px;&quot;&gt;&lt;b&gt;L&lt;/b&gt;&lt;/font&gt;" style="text;html=1;align=center;verticalAlign=middle;resizable=0;points=[];autosize=1;strokeColor=none;fillColor=none;" vertex="1" parent="mbKit9BLrTyehjeJolwP-59">
          <mxGeometry x="120" y="53" width="40" height="50" as="geometry" />
        </mxCell>
        <mxCell id="mbKit9BLrTyehjeJolwP-67" value="&lt;span style=&quot;font-size: 29px;&quot;&gt;&lt;b&gt;R&lt;/b&gt;&lt;/span&gt;" style="text;html=1;align=center;verticalAlign=middle;resizable=0;points=[];autosize=1;strokeColor=none;fillColor=none;" vertex="1" parent="mbKit9BLrTyehjeJolwP-59">
          <mxGeometry x="160" y="53" width="40" height="50" as="geometry" />
        </mxCell>
        <mxCell id="mbKit9BLrTyehjeJolwP-68" value="&lt;b&gt;&lt;font style=&quot;font-size: 15px;&quot;&gt;India&lt;/font&gt;&lt;/b&gt;" style="text;html=1;align=center;verticalAlign=middle;resizable=0;points=[];autosize=1;strokeColor=none;fillColor=none;" vertex="1" parent="mbKit9BLrTyehjeJolwP-59">
          <mxGeometry x="275" y="100" width="60" height="30" as="geometry" />
        </mxCell>
        <mxCell id="mbKit9BLrTyehjeJolwP-69" value="" style="group" vertex="1" connectable="0" parent="mbKit9BLrTyehjeJolwP-58">
          <mxGeometry x="15" y="40" width="350" height="130" as="geometry" />
        </mxCell>
        <mxCell id="mbKit9BLrTyehjeJolwP-70" value="" style="rounded=1;whiteSpace=wrap;html=1;" vertex="1" parent="mbKit9BLrTyehjeJolwP-69">
          <mxGeometry width="350" height="130" as="geometry" />
        </mxCell>
        <mxCell id="mbKit9BLrTyehjeJolwP-71" value="" style="html=1;whiteSpace=wrap;shape=isoCube2;backgroundOutline=1;isoAngle=15;" vertex="1" parent="mbKit9BLrTyehjeJolwP-69">
          <mxGeometry x="120" y="15" width="90" height="100" as="geometry" />
        </mxCell>
        <mxCell id="mbKit9BLrTyehjeJolwP-72" value="" style="endArrow=classic;html=1;rounded=0;" edge="1" parent="mbKit9BLrTyehjeJolwP-69">
          <mxGeometry width="50" height="50" relative="1" as="geometry">
            <mxPoint x="10" y="65" as="sourcePoint" />
            <mxPoint x="90" y="64.5" as="targetPoint" />
          </mxGeometry>
        </mxCell>
        <mxCell id="mbKit9BLrTyehjeJolwP-73" value="&lt;b&gt;&lt;font style=&quot;font-size: 15px;&quot;&gt;Year&lt;/font&gt;&lt;/b&gt;" style="text;html=1;align=center;verticalAlign=middle;resizable=0;points=[];autosize=1;strokeColor=none;fillColor=none;" vertex="1" parent="mbKit9BLrTyehjeJolwP-69">
          <mxGeometry x="20" y="25" width="60" height="30" as="geometry" />
        </mxCell>
        <mxCell id="mbKit9BLrTyehjeJolwP-74" value="" style="endArrow=classic;html=1;rounded=0;" edge="1" parent="mbKit9BLrTyehjeJolwP-69">
          <mxGeometry width="50" height="50" relative="1" as="geometry">
            <mxPoint x="230" y="65" as="sourcePoint" />
            <mxPoint x="310" y="64.5" as="targetPoint" />
          </mxGeometry>
        </mxCell>
        <mxCell id="mbKit9BLrTyehjeJolwP-75" value="&lt;b&gt;&lt;font style=&quot;font-size: 15px;&quot;&gt;Fertility Ratio&lt;/font&gt;&lt;/b&gt;" style="text;html=1;align=center;verticalAlign=middle;resizable=0;points=[];autosize=1;strokeColor=none;fillColor=none;" vertex="1" parent="mbKit9BLrTyehjeJolwP-69">
          <mxGeometry x="215" y="25" width="120" height="30" as="geometry" />
        </mxCell>
        <mxCell id="mbKit9BLrTyehjeJolwP-76" value="&lt;font style=&quot;font-size: 29px;&quot;&gt;&lt;b&gt;L&lt;/b&gt;&lt;/font&gt;" style="text;html=1;align=center;verticalAlign=middle;resizable=0;points=[];autosize=1;strokeColor=none;fillColor=none;" vertex="1" parent="mbKit9BLrTyehjeJolwP-69">
          <mxGeometry x="120" y="53" width="40" height="50" as="geometry" />
        </mxCell>
        <mxCell id="mbKit9BLrTyehjeJolwP-77" value="&lt;span style=&quot;font-size: 29px;&quot;&gt;&lt;b&gt;R&lt;/b&gt;&lt;/span&gt;" style="text;html=1;align=center;verticalAlign=middle;resizable=0;points=[];autosize=1;strokeColor=none;fillColor=none;" vertex="1" parent="mbKit9BLrTyehjeJolwP-69">
          <mxGeometry x="160" y="53" width="40" height="50" as="geometry" />
        </mxCell>
        <mxCell id="mbKit9BLrTyehjeJolwP-78" value="&lt;span style=&quot;font-size: 15px;&quot;&gt;&lt;b&gt;Germany&lt;/b&gt;&lt;/span&gt;" style="text;html=1;align=center;verticalAlign=middle;resizable=0;points=[];autosize=1;strokeColor=none;fillColor=none;" vertex="1" parent="mbKit9BLrTyehjeJolwP-69">
          <mxGeometry x="260" y="100" width="90" height="30" as="geometry" />
        </mxCell>
        <mxCell id="mbKit9BLrTyehjeJolwP-79" value="" style="group" vertex="1" connectable="0" parent="mbKit9BLrTyehjeJolwP-58">
          <mxGeometry width="365" height="130" as="geometry" />
        </mxCell>
        <mxCell id="mbKit9BLrTyehjeJolwP-80" value="" style="rounded=1;whiteSpace=wrap;html=1;" vertex="1" parent="mbKit9BLrTyehjeJolwP-79">
          <mxGeometry width="350" height="130" as="geometry" />
        </mxCell>
        <mxCell id="mbKit9BLrTyehjeJolwP-81" value="" style="html=1;whiteSpace=wrap;shape=isoCube2;backgroundOutline=1;isoAngle=15;" vertex="1" parent="mbKit9BLrTyehjeJolwP-79">
          <mxGeometry x="120" y="15" width="90" height="100" as="geometry" />
        </mxCell>
        <mxCell id="mbKit9BLrTyehjeJolwP-82" value="" style="endArrow=classic;html=1;rounded=0;" edge="1" parent="mbKit9BLrTyehjeJolwP-79">
          <mxGeometry width="50" height="50" relative="1" as="geometry">
            <mxPoint x="10" y="65" as="sourcePoint" />
            <mxPoint x="90" y="64.5" as="targetPoint" />
          </mxGeometry>
        </mxCell>
        <mxCell id="mbKit9BLrTyehjeJolwP-83" value="&lt;b&gt;&lt;font style=&quot;font-size: 15px;&quot;&gt;Year&lt;/font&gt;&lt;/b&gt;" style="text;html=1;align=center;verticalAlign=middle;resizable=0;points=[];autosize=1;strokeColor=none;fillColor=none;" vertex="1" parent="mbKit9BLrTyehjeJolwP-79">
          <mxGeometry x="20" y="25" width="60" height="30" as="geometry" />
        </mxCell>
        <mxCell id="mbKit9BLrTyehjeJolwP-84" value="" style="endArrow=classic;html=1;rounded=0;" edge="1" parent="mbKit9BLrTyehjeJolwP-79">
          <mxGeometry width="50" height="50" relative="1" as="geometry">
            <mxPoint x="230" y="65" as="sourcePoint" />
            <mxPoint x="310" y="64.5" as="targetPoint" />
          </mxGeometry>
        </mxCell>
        <mxCell id="mbKit9BLrTyehjeJolwP-85" value="&lt;span style=&quot;font-size: 15px;&quot;&gt;&lt;b&gt;Avg Edu (F)&lt;/b&gt;&lt;/span&gt;" style="text;html=1;align=center;verticalAlign=middle;resizable=0;points=[];autosize=1;strokeColor=none;fillColor=none;" vertex="1" parent="mbKit9BLrTyehjeJolwP-79">
          <mxGeometry x="220" y="25" width="110" height="30" as="geometry" />
        </mxCell>
        <mxCell id="mbKit9BLrTyehjeJolwP-86" value="&lt;font style=&quot;font-size: 29px;&quot;&gt;&lt;b&gt;L&lt;/b&gt;&lt;/font&gt;" style="text;html=1;align=center;verticalAlign=middle;resizable=0;points=[];autosize=1;strokeColor=none;fillColor=none;" vertex="1" parent="mbKit9BLrTyehjeJolwP-79">
          <mxGeometry x="120" y="53" width="40" height="50" as="geometry" />
        </mxCell>
        <mxCell id="mbKit9BLrTyehjeJolwP-87" value="&lt;span style=&quot;font-size: 29px;&quot;&gt;&lt;b&gt;R&lt;/b&gt;&lt;/span&gt;" style="text;html=1;align=center;verticalAlign=middle;resizable=0;points=[];autosize=1;strokeColor=none;fillColor=none;" vertex="1" parent="mbKit9BLrTyehjeJolwP-79">
          <mxGeometry x="160" y="53" width="40" height="50" as="geometry" />
        </mxCell>
        <mxCell id="mbKit9BLrTyehjeJolwP-88" value="&lt;span style=&quot;font-size: 15px;&quot;&gt;&lt;b&gt;United States&lt;/b&gt;&lt;/span&gt;" style="text;html=1;align=center;verticalAlign=middle;resizable=0;points=[];autosize=1;strokeColor=none;fillColor=none;" vertex="1" parent="mbKit9BLrTyehjeJolwP-79">
          <mxGeometry x="230" y="100" width="120" height="30" as="geometry" />
        </mxCell>
        <mxCell id="mbKit9BLrTyehjeJolwP-89" value="" style="group" vertex="1" connectable="0" parent="1">
          <mxGeometry x="40" y="500" width="385" height="205" as="geometry" />
        </mxCell>
        <mxCell id="mbKit9BLrTyehjeJolwP-90" value="" style="group" vertex="1" connectable="0" parent="mbKit9BLrTyehjeJolwP-89">
          <mxGeometry x="35" y="75" width="350" height="130" as="geometry" />
        </mxCell>
        <mxCell id="mbKit9BLrTyehjeJolwP-91" value="" style="rounded=1;whiteSpace=wrap;html=1;" vertex="1" parent="mbKit9BLrTyehjeJolwP-90">
          <mxGeometry width="350" height="130" as="geometry" />
        </mxCell>
        <mxCell id="mbKit9BLrTyehjeJolwP-92" value="" style="html=1;whiteSpace=wrap;shape=isoCube2;backgroundOutline=1;isoAngle=15;" vertex="1" parent="mbKit9BLrTyehjeJolwP-90">
          <mxGeometry x="120" y="15" width="90" height="100" as="geometry" />
        </mxCell>
        <mxCell id="mbKit9BLrTyehjeJolwP-93" value="" style="endArrow=classic;html=1;rounded=0;" edge="1" parent="mbKit9BLrTyehjeJolwP-90">
          <mxGeometry width="50" height="50" relative="1" as="geometry">
            <mxPoint x="10" y="65" as="sourcePoint" />
            <mxPoint x="90" y="64.5" as="targetPoint" />
          </mxGeometry>
        </mxCell>
        <mxCell id="mbKit9BLrTyehjeJolwP-94" value="&lt;b&gt;&lt;font style=&quot;font-size: 15px;&quot;&gt;Year&lt;/font&gt;&lt;/b&gt;" style="text;html=1;align=center;verticalAlign=middle;resizable=0;points=[];autosize=1;strokeColor=none;fillColor=none;" vertex="1" parent="mbKit9BLrTyehjeJolwP-90">
          <mxGeometry x="20" y="25" width="60" height="30" as="geometry" />
        </mxCell>
        <mxCell id="mbKit9BLrTyehjeJolwP-95" value="" style="endArrow=classic;html=1;rounded=0;" edge="1" parent="mbKit9BLrTyehjeJolwP-90">
          <mxGeometry width="50" height="50" relative="1" as="geometry">
            <mxPoint x="230" y="65" as="sourcePoint" />
            <mxPoint x="310" y="64.5" as="targetPoint" />
          </mxGeometry>
        </mxCell>
        <mxCell id="mbKit9BLrTyehjeJolwP-96" value="&lt;b&gt;&lt;font style=&quot;font-size: 15px;&quot;&gt;Fertility Ratio&lt;/font&gt;&lt;/b&gt;" style="text;html=1;align=center;verticalAlign=middle;resizable=0;points=[];autosize=1;strokeColor=none;fillColor=none;" vertex="1" parent="mbKit9BLrTyehjeJolwP-90">
          <mxGeometry x="215" y="25" width="120" height="30" as="geometry" />
        </mxCell>
        <mxCell id="mbKit9BLrTyehjeJolwP-97" value="&lt;font style=&quot;font-size: 29px;&quot;&gt;&lt;b&gt;L&lt;/b&gt;&lt;/font&gt;" style="text;html=1;align=center;verticalAlign=middle;resizable=0;points=[];autosize=1;strokeColor=none;fillColor=none;" vertex="1" parent="mbKit9BLrTyehjeJolwP-90">
          <mxGeometry x="120" y="53" width="40" height="50" as="geometry" />
        </mxCell>
        <mxCell id="mbKit9BLrTyehjeJolwP-98" value="&lt;span style=&quot;font-size: 29px;&quot;&gt;&lt;b&gt;R&lt;/b&gt;&lt;/span&gt;" style="text;html=1;align=center;verticalAlign=middle;resizable=0;points=[];autosize=1;strokeColor=none;fillColor=none;" vertex="1" parent="mbKit9BLrTyehjeJolwP-90">
          <mxGeometry x="160" y="53" width="40" height="50" as="geometry" />
        </mxCell>
        <mxCell id="mbKit9BLrTyehjeJolwP-99" value="&lt;b&gt;&lt;font style=&quot;font-size: 15px;&quot;&gt;India&lt;/font&gt;&lt;/b&gt;" style="text;html=1;align=center;verticalAlign=middle;resizable=0;points=[];autosize=1;strokeColor=none;fillColor=none;" vertex="1" parent="mbKit9BLrTyehjeJolwP-90">
          <mxGeometry x="275" y="100" width="60" height="30" as="geometry" />
        </mxCell>
        <mxCell id="mbKit9BLrTyehjeJolwP-100" value="" style="group" vertex="1" connectable="0" parent="mbKit9BLrTyehjeJolwP-89">
          <mxGeometry x="15" y="40" width="350" height="130" as="geometry" />
        </mxCell>
        <mxCell id="mbKit9BLrTyehjeJolwP-101" value="" style="rounded=1;whiteSpace=wrap;html=1;" vertex="1" parent="mbKit9BLrTyehjeJolwP-100">
          <mxGeometry width="350" height="130" as="geometry" />
        </mxCell>
        <mxCell id="mbKit9BLrTyehjeJolwP-102" value="" style="html=1;whiteSpace=wrap;shape=isoCube2;backgroundOutline=1;isoAngle=15;" vertex="1" parent="mbKit9BLrTyehjeJolwP-100">
          <mxGeometry x="120" y="15" width="90" height="100" as="geometry" />
        </mxCell>
        <mxCell id="mbKit9BLrTyehjeJolwP-103" value="" style="endArrow=classic;html=1;rounded=0;" edge="1" parent="mbKit9BLrTyehjeJolwP-100">
          <mxGeometry width="50" height="50" relative="1" as="geometry">
            <mxPoint x="10" y="65" as="sourcePoint" />
            <mxPoint x="90" y="64.5" as="targetPoint" />
          </mxGeometry>
        </mxCell>
        <mxCell id="mbKit9BLrTyehjeJolwP-104" value="&lt;b&gt;&lt;font style=&quot;font-size: 15px;&quot;&gt;Year&lt;/font&gt;&lt;/b&gt;" style="text;html=1;align=center;verticalAlign=middle;resizable=0;points=[];autosize=1;strokeColor=none;fillColor=none;" vertex="1" parent="mbKit9BLrTyehjeJolwP-100">
          <mxGeometry x="20" y="25" width="60" height="30" as="geometry" />
        </mxCell>
        <mxCell id="mbKit9BLrTyehjeJolwP-105" value="" style="endArrow=classic;html=1;rounded=0;" edge="1" parent="mbKit9BLrTyehjeJolwP-100">
          <mxGeometry width="50" height="50" relative="1" as="geometry">
            <mxPoint x="230" y="65" as="sourcePoint" />
            <mxPoint x="310" y="64.5" as="targetPoint" />
          </mxGeometry>
        </mxCell>
        <mxCell id="mbKit9BLrTyehjeJolwP-106" value="&lt;b&gt;&lt;font style=&quot;font-size: 15px;&quot;&gt;Fertility Ratio&lt;/font&gt;&lt;/b&gt;" style="text;html=1;align=center;verticalAlign=middle;resizable=0;points=[];autosize=1;strokeColor=none;fillColor=none;" vertex="1" parent="mbKit9BLrTyehjeJolwP-100">
          <mxGeometry x="215" y="25" width="120" height="30" as="geometry" />
        </mxCell>
        <mxCell id="mbKit9BLrTyehjeJolwP-107" value="&lt;font style=&quot;font-size: 29px;&quot;&gt;&lt;b&gt;L&lt;/b&gt;&lt;/font&gt;" style="text;html=1;align=center;verticalAlign=middle;resizable=0;points=[];autosize=1;strokeColor=none;fillColor=none;" vertex="1" parent="mbKit9BLrTyehjeJolwP-100">
          <mxGeometry x="120" y="53" width="40" height="50" as="geometry" />
        </mxCell>
        <mxCell id="mbKit9BLrTyehjeJolwP-108" value="&lt;span style=&quot;font-size: 29px;&quot;&gt;&lt;b&gt;R&lt;/b&gt;&lt;/span&gt;" style="text;html=1;align=center;verticalAlign=middle;resizable=0;points=[];autosize=1;strokeColor=none;fillColor=none;" vertex="1" parent="mbKit9BLrTyehjeJolwP-100">
          <mxGeometry x="160" y="53" width="40" height="50" as="geometry" />
        </mxCell>
        <mxCell id="mbKit9BLrTyehjeJolwP-109" value="&lt;span style=&quot;font-size: 15px;&quot;&gt;&lt;b&gt;Germany&lt;/b&gt;&lt;/span&gt;" style="text;html=1;align=center;verticalAlign=middle;resizable=0;points=[];autosize=1;strokeColor=none;fillColor=none;" vertex="1" parent="mbKit9BLrTyehjeJolwP-100">
          <mxGeometry x="260" y="100" width="90" height="30" as="geometry" />
        </mxCell>
        <mxCell id="mbKit9BLrTyehjeJolwP-110" value="" style="group" vertex="1" connectable="0" parent="mbKit9BLrTyehjeJolwP-89">
          <mxGeometry width="365" height="130" as="geometry" />
        </mxCell>
        <mxCell id="mbKit9BLrTyehjeJolwP-111" value="" style="rounded=1;whiteSpace=wrap;html=1;" vertex="1" parent="mbKit9BLrTyehjeJolwP-110">
          <mxGeometry width="350" height="130" as="geometry" />
        </mxCell>
        <mxCell id="mbKit9BLrTyehjeJolwP-112" value="" style="html=1;whiteSpace=wrap;shape=isoCube2;backgroundOutline=1;isoAngle=15;" vertex="1" parent="mbKit9BLrTyehjeJolwP-110">
          <mxGeometry x="120" y="15" width="90" height="100" as="geometry" />
        </mxCell>
        <mxCell id="mbKit9BLrTyehjeJolwP-113" value="" style="endArrow=classic;html=1;rounded=0;" edge="1" parent="mbKit9BLrTyehjeJolwP-110">
          <mxGeometry width="50" height="50" relative="1" as="geometry">
            <mxPoint x="10" y="65" as="sourcePoint" />
            <mxPoint x="90" y="64.5" as="targetPoint" />
          </mxGeometry>
        </mxCell>
        <mxCell id="mbKit9BLrTyehjeJolwP-114" value="&lt;b&gt;&lt;font style=&quot;font-size: 15px;&quot;&gt;Year&lt;/font&gt;&lt;/b&gt;" style="text;html=1;align=center;verticalAlign=middle;resizable=0;points=[];autosize=1;strokeColor=none;fillColor=none;" vertex="1" parent="mbKit9BLrTyehjeJolwP-110">
          <mxGeometry x="20" y="25" width="60" height="30" as="geometry" />
        </mxCell>
        <mxCell id="mbKit9BLrTyehjeJolwP-115" value="" style="endArrow=classic;html=1;rounded=0;" edge="1" parent="mbKit9BLrTyehjeJolwP-110">
          <mxGeometry width="50" height="50" relative="1" as="geometry">
            <mxPoint x="230" y="65" as="sourcePoint" />
            <mxPoint x="310" y="64.5" as="targetPoint" />
          </mxGeometry>
        </mxCell>
        <mxCell id="mbKit9BLrTyehjeJolwP-116" value="&lt;span style=&quot;font-size: 15px;&quot;&gt;&lt;b&gt;Youth Med Age&lt;/b&gt;&lt;/span&gt;" style="text;html=1;align=center;verticalAlign=middle;resizable=0;points=[];autosize=1;strokeColor=none;fillColor=none;" vertex="1" parent="mbKit9BLrTyehjeJolwP-110">
          <mxGeometry x="210" y="23" width="130" height="30" as="geometry" />
        </mxCell>
        <mxCell id="mbKit9BLrTyehjeJolwP-117" value="&lt;font style=&quot;font-size: 29px;&quot;&gt;&lt;b&gt;L&lt;/b&gt;&lt;/font&gt;" style="text;html=1;align=center;verticalAlign=middle;resizable=0;points=[];autosize=1;strokeColor=none;fillColor=none;" vertex="1" parent="mbKit9BLrTyehjeJolwP-110">
          <mxGeometry x="120" y="53" width="40" height="50" as="geometry" />
        </mxCell>
        <mxCell id="mbKit9BLrTyehjeJolwP-118" value="&lt;span style=&quot;font-size: 29px;&quot;&gt;&lt;b&gt;R&lt;/b&gt;&lt;/span&gt;" style="text;html=1;align=center;verticalAlign=middle;resizable=0;points=[];autosize=1;strokeColor=none;fillColor=none;" vertex="1" parent="mbKit9BLrTyehjeJolwP-110">
          <mxGeometry x="160" y="53" width="40" height="50" as="geometry" />
        </mxCell>
        <mxCell id="mbKit9BLrTyehjeJolwP-119" value="&lt;span style=&quot;font-size: 15px;&quot;&gt;&lt;b&gt;United States&lt;/b&gt;&lt;/span&gt;" style="text;html=1;align=center;verticalAlign=middle;resizable=0;points=[];autosize=1;strokeColor=none;fillColor=none;" vertex="1" parent="mbKit9BLrTyehjeJolwP-110">
          <mxGeometry x="230" y="100" width="120" height="30" as="geometry" />
        </mxCell>
        <mxCell id="mbKit9BLrTyehjeJolwP-183" value="" style="group" vertex="1" connectable="0" parent="1">
          <mxGeometry x="620" y="270" width="390" height="245" as="geometry" />
        </mxCell>
        <mxCell id="mbKit9BLrTyehjeJolwP-148" value="" style="group" vertex="1" connectable="0" parent="mbKit9BLrTyehjeJolwP-183">
          <mxGeometry x="40" y="80" width="350" height="165" as="geometry" />
        </mxCell>
        <mxCell id="mbKit9BLrTyehjeJolwP-122" value="" style="rounded=1;whiteSpace=wrap;html=1;" vertex="1" parent="mbKit9BLrTyehjeJolwP-148">
          <mxGeometry width="350" height="165" as="geometry" />
        </mxCell>
        <mxCell id="mbKit9BLrTyehjeJolwP-123" value="" style="html=1;whiteSpace=wrap;shape=isoCube2;backgroundOutline=1;isoAngle=15;" vertex="1" parent="mbKit9BLrTyehjeJolwP-148">
          <mxGeometry x="140" y="30" width="90" height="100" as="geometry" />
        </mxCell>
        <mxCell id="mbKit9BLrTyehjeJolwP-124" value="" style="endArrow=classic;html=1;rounded=0;" edge="1" parent="mbKit9BLrTyehjeJolwP-148">
          <mxGeometry width="50" height="50" relative="1" as="geometry">
            <mxPoint x="35" y="32.5" as="sourcePoint" />
            <mxPoint x="115" y="32" as="targetPoint" />
          </mxGeometry>
        </mxCell>
        <mxCell id="mbKit9BLrTyehjeJolwP-125" value="&lt;b&gt;&lt;font style=&quot;font-size: 15px;&quot;&gt;Year&lt;/font&gt;&lt;/b&gt;" style="text;html=1;align=center;verticalAlign=middle;resizable=0;points=[];autosize=1;strokeColor=none;fillColor=none;" vertex="1" parent="mbKit9BLrTyehjeJolwP-148">
          <mxGeometry x="35" width="60" height="30" as="geometry" />
        </mxCell>
        <mxCell id="mbKit9BLrTyehjeJolwP-126" value="" style="endArrow=classic;html=1;rounded=0;" edge="1" parent="mbKit9BLrTyehjeJolwP-148">
          <mxGeometry width="50" height="50" relative="1" as="geometry">
            <mxPoint x="240" y="80" as="sourcePoint" />
            <mxPoint x="320" y="79.5" as="targetPoint" />
          </mxGeometry>
        </mxCell>
        <mxCell id="mbKit9BLrTyehjeJolwP-127" value="&lt;span style=&quot;font-size: 15px;&quot;&gt;&lt;b&gt;GDP&lt;/b&gt;&lt;/span&gt;" style="text;html=1;align=center;verticalAlign=middle;resizable=0;points=[];autosize=1;strokeColor=none;fillColor=none;" vertex="1" parent="mbKit9BLrTyehjeJolwP-148">
          <mxGeometry x="240" y="45" width="60" height="30" as="geometry" />
        </mxCell>
        <mxCell id="mbKit9BLrTyehjeJolwP-128" value="&lt;font style=&quot;font-size: 29px;&quot;&gt;&lt;b&gt;L&lt;/b&gt;&lt;/font&gt;" style="text;html=1;align=center;verticalAlign=middle;resizable=0;points=[];autosize=1;strokeColor=none;fillColor=none;" vertex="1" parent="mbKit9BLrTyehjeJolwP-148">
          <mxGeometry x="140" y="68" width="40" height="50" as="geometry" />
        </mxCell>
        <mxCell id="mbKit9BLrTyehjeJolwP-129" value="&lt;span style=&quot;font-size: 29px;&quot;&gt;&lt;b&gt;R&lt;/b&gt;&lt;/span&gt;" style="text;html=1;align=center;verticalAlign=middle;resizable=0;points=[];autosize=1;strokeColor=none;fillColor=none;" vertex="1" parent="mbKit9BLrTyehjeJolwP-148">
          <mxGeometry x="180" y="68" width="40" height="50" as="geometry" />
        </mxCell>
        <mxCell id="mbKit9BLrTyehjeJolwP-130" value="&lt;b&gt;&lt;font style=&quot;font-size: 15px;&quot;&gt;India&lt;/font&gt;&lt;/b&gt;" style="text;html=1;align=center;verticalAlign=middle;resizable=0;points=[];autosize=1;strokeColor=none;fillColor=none;" vertex="1" parent="mbKit9BLrTyehjeJolwP-148">
          <mxGeometry x="260" y="118" width="60" height="30" as="geometry" />
        </mxCell>
        <mxCell id="mbKit9BLrTyehjeJolwP-131" value="" style="endArrow=classic;html=1;rounded=0;" edge="1" parent="mbKit9BLrTyehjeJolwP-148">
          <mxGeometry width="50" height="50" relative="1" as="geometry">
            <mxPoint x="35" y="70.5" as="sourcePoint" />
            <mxPoint x="115" y="70" as="targetPoint" />
          </mxGeometry>
        </mxCell>
        <mxCell id="mbKit9BLrTyehjeJolwP-132" value="&lt;span style=&quot;font-size: 15px;&quot;&gt;&lt;b&gt;Avg Edu (F)&lt;/b&gt;&lt;/span&gt;" style="text;html=1;align=center;verticalAlign=middle;resizable=0;points=[];autosize=1;strokeColor=none;fillColor=none;" vertex="1" parent="mbKit9BLrTyehjeJolwP-148">
          <mxGeometry x="20" y="40" width="110" height="30" as="geometry" />
        </mxCell>
        <mxCell id="mbKit9BLrTyehjeJolwP-134" value="&lt;span style=&quot;font-size: 15px;&quot;&gt;&lt;b&gt;Youth Med Age&lt;/b&gt;&lt;/span&gt;" style="text;html=1;align=center;verticalAlign=middle;resizable=0;points=[];autosize=1;strokeColor=none;fillColor=none;" vertex="1" parent="mbKit9BLrTyehjeJolwP-148">
          <mxGeometry x="10" y="75" width="130" height="30" as="geometry" />
        </mxCell>
        <mxCell id="mbKit9BLrTyehjeJolwP-138" value="" style="endArrow=classic;html=1;rounded=0;" edge="1" parent="mbKit9BLrTyehjeJolwP-148">
          <mxGeometry width="50" height="50" relative="1" as="geometry">
            <mxPoint x="35" y="105.5" as="sourcePoint" />
            <mxPoint x="115" y="105" as="targetPoint" />
          </mxGeometry>
        </mxCell>
        <mxCell id="mbKit9BLrTyehjeJolwP-147" value="" style="group" vertex="1" connectable="0" parent="mbKit9BLrTyehjeJolwP-148">
          <mxGeometry y="105" width="120" height="30.5" as="geometry" />
        </mxCell>
        <mxCell id="mbKit9BLrTyehjeJolwP-145" value="" style="endArrow=classic;html=1;rounded=0;" edge="1" parent="mbKit9BLrTyehjeJolwP-147">
          <mxGeometry width="50" height="50" relative="1" as="geometry">
            <mxPoint x="40" y="30.5" as="sourcePoint" />
            <mxPoint x="120" y="30" as="targetPoint" />
          </mxGeometry>
        </mxCell>
        <mxCell id="mbKit9BLrTyehjeJolwP-146" value="&lt;span style=&quot;font-size: 15px;&quot;&gt;&lt;b&gt;Fertility Ratio&lt;/b&gt;&lt;/span&gt;" style="text;html=1;align=center;verticalAlign=middle;resizable=0;points=[];autosize=1;strokeColor=none;fillColor=none;" vertex="1" parent="mbKit9BLrTyehjeJolwP-147">
          <mxGeometry width="120" height="30" as="geometry" />
        </mxCell>
        <mxCell id="mbKit9BLrTyehjeJolwP-149" value="" style="group" vertex="1" connectable="0" parent="mbKit9BLrTyehjeJolwP-183">
          <mxGeometry x="20" y="40" width="350" height="165" as="geometry" />
        </mxCell>
        <mxCell id="mbKit9BLrTyehjeJolwP-150" value="" style="rounded=1;whiteSpace=wrap;html=1;" vertex="1" parent="mbKit9BLrTyehjeJolwP-149">
          <mxGeometry width="350" height="165" as="geometry" />
        </mxCell>
        <mxCell id="mbKit9BLrTyehjeJolwP-151" value="" style="html=1;whiteSpace=wrap;shape=isoCube2;backgroundOutline=1;isoAngle=15;" vertex="1" parent="mbKit9BLrTyehjeJolwP-149">
          <mxGeometry x="140" y="30" width="90" height="100" as="geometry" />
        </mxCell>
        <mxCell id="mbKit9BLrTyehjeJolwP-152" value="" style="endArrow=classic;html=1;rounded=0;" edge="1" parent="mbKit9BLrTyehjeJolwP-149">
          <mxGeometry width="50" height="50" relative="1" as="geometry">
            <mxPoint x="35" y="32.5" as="sourcePoint" />
            <mxPoint x="115" y="32" as="targetPoint" />
          </mxGeometry>
        </mxCell>
        <mxCell id="mbKit9BLrTyehjeJolwP-153" value="&lt;b&gt;&lt;font style=&quot;font-size: 15px;&quot;&gt;Year&lt;/font&gt;&lt;/b&gt;" style="text;html=1;align=center;verticalAlign=middle;resizable=0;points=[];autosize=1;strokeColor=none;fillColor=none;" vertex="1" parent="mbKit9BLrTyehjeJolwP-149">
          <mxGeometry x="35" width="60" height="30" as="geometry" />
        </mxCell>
        <mxCell id="mbKit9BLrTyehjeJolwP-154" value="" style="endArrow=classic;html=1;rounded=0;" edge="1" parent="mbKit9BLrTyehjeJolwP-149">
          <mxGeometry width="50" height="50" relative="1" as="geometry">
            <mxPoint x="240" y="80" as="sourcePoint" />
            <mxPoint x="320" y="79.5" as="targetPoint" />
          </mxGeometry>
        </mxCell>
        <mxCell id="mbKit9BLrTyehjeJolwP-155" value="&lt;span style=&quot;font-size: 15px;&quot;&gt;&lt;b&gt;GDP&lt;/b&gt;&lt;/span&gt;" style="text;html=1;align=center;verticalAlign=middle;resizable=0;points=[];autosize=1;strokeColor=none;fillColor=none;" vertex="1" parent="mbKit9BLrTyehjeJolwP-149">
          <mxGeometry x="240" y="45" width="60" height="30" as="geometry" />
        </mxCell>
        <mxCell id="mbKit9BLrTyehjeJolwP-156" value="&lt;font style=&quot;font-size: 29px;&quot;&gt;&lt;b&gt;L&lt;/b&gt;&lt;/font&gt;" style="text;html=1;align=center;verticalAlign=middle;resizable=0;points=[];autosize=1;strokeColor=none;fillColor=none;" vertex="1" parent="mbKit9BLrTyehjeJolwP-149">
          <mxGeometry x="140" y="68" width="40" height="50" as="geometry" />
        </mxCell>
        <mxCell id="mbKit9BLrTyehjeJolwP-157" value="&lt;span style=&quot;font-size: 29px;&quot;&gt;&lt;b&gt;R&lt;/b&gt;&lt;/span&gt;" style="text;html=1;align=center;verticalAlign=middle;resizable=0;points=[];autosize=1;strokeColor=none;fillColor=none;" vertex="1" parent="mbKit9BLrTyehjeJolwP-149">
          <mxGeometry x="180" y="68" width="40" height="50" as="geometry" />
        </mxCell>
        <mxCell id="mbKit9BLrTyehjeJolwP-158" value="&lt;span style=&quot;font-size: 15px;&quot;&gt;&lt;b&gt;Germany&lt;/b&gt;&lt;/span&gt;" style="text;html=1;align=center;verticalAlign=middle;resizable=0;points=[];autosize=1;strokeColor=none;fillColor=none;" vertex="1" parent="mbKit9BLrTyehjeJolwP-149">
          <mxGeometry x="245" y="118" width="90" height="30" as="geometry" />
        </mxCell>
        <mxCell id="mbKit9BLrTyehjeJolwP-159" value="" style="endArrow=classic;html=1;rounded=0;" edge="1" parent="mbKit9BLrTyehjeJolwP-149">
          <mxGeometry width="50" height="50" relative="1" as="geometry">
            <mxPoint x="35" y="70.5" as="sourcePoint" />
            <mxPoint x="115" y="70" as="targetPoint" />
          </mxGeometry>
        </mxCell>
        <mxCell id="mbKit9BLrTyehjeJolwP-160" value="&lt;span style=&quot;font-size: 15px;&quot;&gt;&lt;b&gt;Avg Edu (F)&lt;/b&gt;&lt;/span&gt;" style="text;html=1;align=center;verticalAlign=middle;resizable=0;points=[];autosize=1;strokeColor=none;fillColor=none;" vertex="1" parent="mbKit9BLrTyehjeJolwP-149">
          <mxGeometry x="20" y="40" width="110" height="30" as="geometry" />
        </mxCell>
        <mxCell id="mbKit9BLrTyehjeJolwP-161" value="&lt;span style=&quot;font-size: 15px;&quot;&gt;&lt;b&gt;Youth Med Age&lt;/b&gt;&lt;/span&gt;" style="text;html=1;align=center;verticalAlign=middle;resizable=0;points=[];autosize=1;strokeColor=none;fillColor=none;" vertex="1" parent="mbKit9BLrTyehjeJolwP-149">
          <mxGeometry x="10" y="75" width="130" height="30" as="geometry" />
        </mxCell>
        <mxCell id="mbKit9BLrTyehjeJolwP-162" value="" style="endArrow=classic;html=1;rounded=0;" edge="1" parent="mbKit9BLrTyehjeJolwP-149">
          <mxGeometry width="50" height="50" relative="1" as="geometry">
            <mxPoint x="35" y="105.5" as="sourcePoint" />
            <mxPoint x="115" y="105" as="targetPoint" />
          </mxGeometry>
        </mxCell>
        <mxCell id="mbKit9BLrTyehjeJolwP-163" value="" style="group" vertex="1" connectable="0" parent="mbKit9BLrTyehjeJolwP-149">
          <mxGeometry y="105" width="120" height="30.5" as="geometry" />
        </mxCell>
        <mxCell id="mbKit9BLrTyehjeJolwP-164" value="" style="endArrow=classic;html=1;rounded=0;" edge="1" parent="mbKit9BLrTyehjeJolwP-163">
          <mxGeometry width="50" height="50" relative="1" as="geometry">
            <mxPoint x="40" y="30.5" as="sourcePoint" />
            <mxPoint x="120" y="30" as="targetPoint" />
          </mxGeometry>
        </mxCell>
        <mxCell id="mbKit9BLrTyehjeJolwP-165" value="&lt;span style=&quot;font-size: 15px;&quot;&gt;&lt;b&gt;Fertility Ratio&lt;/b&gt;&lt;/span&gt;" style="text;html=1;align=center;verticalAlign=middle;resizable=0;points=[];autosize=1;strokeColor=none;fillColor=none;" vertex="1" parent="mbKit9BLrTyehjeJolwP-163">
          <mxGeometry width="120" height="30" as="geometry" />
        </mxCell>
        <mxCell id="mbKit9BLrTyehjeJolwP-166" value="" style="group" vertex="1" connectable="0" parent="mbKit9BLrTyehjeJolwP-183">
          <mxGeometry width="350" height="165" as="geometry" />
        </mxCell>
        <mxCell id="mbKit9BLrTyehjeJolwP-167" value="" style="rounded=1;whiteSpace=wrap;html=1;" vertex="1" parent="mbKit9BLrTyehjeJolwP-166">
          <mxGeometry width="350" height="165" as="geometry" />
        </mxCell>
        <mxCell id="mbKit9BLrTyehjeJolwP-168" value="" style="html=1;whiteSpace=wrap;shape=isoCube2;backgroundOutline=1;isoAngle=15;" vertex="1" parent="mbKit9BLrTyehjeJolwP-166">
          <mxGeometry x="140" y="30" width="90" height="100" as="geometry" />
        </mxCell>
        <mxCell id="mbKit9BLrTyehjeJolwP-169" value="" style="endArrow=classic;html=1;rounded=0;" edge="1" parent="mbKit9BLrTyehjeJolwP-166">
          <mxGeometry width="50" height="50" relative="1" as="geometry">
            <mxPoint x="35" y="32.5" as="sourcePoint" />
            <mxPoint x="115" y="32" as="targetPoint" />
          </mxGeometry>
        </mxCell>
        <mxCell id="mbKit9BLrTyehjeJolwP-170" value="&lt;b&gt;&lt;font style=&quot;font-size: 15px;&quot;&gt;Year&lt;/font&gt;&lt;/b&gt;" style="text;html=1;align=center;verticalAlign=middle;resizable=0;points=[];autosize=1;strokeColor=none;fillColor=none;" vertex="1" parent="mbKit9BLrTyehjeJolwP-166">
          <mxGeometry x="35" width="60" height="30" as="geometry" />
        </mxCell>
        <mxCell id="mbKit9BLrTyehjeJolwP-171" value="" style="endArrow=classic;html=1;rounded=0;" edge="1" parent="mbKit9BLrTyehjeJolwP-166">
          <mxGeometry width="50" height="50" relative="1" as="geometry">
            <mxPoint x="240" y="80" as="sourcePoint" />
            <mxPoint x="320" y="79.5" as="targetPoint" />
          </mxGeometry>
        </mxCell>
        <mxCell id="mbKit9BLrTyehjeJolwP-172" value="&lt;span style=&quot;font-size: 15px;&quot;&gt;&lt;b&gt;GDP&lt;/b&gt;&lt;/span&gt;" style="text;html=1;align=center;verticalAlign=middle;resizable=0;points=[];autosize=1;strokeColor=none;fillColor=none;" vertex="1" parent="mbKit9BLrTyehjeJolwP-166">
          <mxGeometry x="240" y="45" width="60" height="30" as="geometry" />
        </mxCell>
        <mxCell id="mbKit9BLrTyehjeJolwP-173" value="&lt;font style=&quot;font-size: 29px;&quot;&gt;&lt;b&gt;L&lt;/b&gt;&lt;/font&gt;" style="text;html=1;align=center;verticalAlign=middle;resizable=0;points=[];autosize=1;strokeColor=none;fillColor=none;" vertex="1" parent="mbKit9BLrTyehjeJolwP-166">
          <mxGeometry x="140" y="68" width="40" height="50" as="geometry" />
        </mxCell>
        <mxCell id="mbKit9BLrTyehjeJolwP-174" value="&lt;span style=&quot;font-size: 29px;&quot;&gt;&lt;b&gt;R&lt;/b&gt;&lt;/span&gt;" style="text;html=1;align=center;verticalAlign=middle;resizable=0;points=[];autosize=1;strokeColor=none;fillColor=none;" vertex="1" parent="mbKit9BLrTyehjeJolwP-166">
          <mxGeometry x="180" y="68" width="40" height="50" as="geometry" />
        </mxCell>
        <mxCell id="mbKit9BLrTyehjeJolwP-175" value="&lt;span style=&quot;font-size: 15px;&quot;&gt;&lt;b&gt;United States&lt;/b&gt;&lt;/span&gt;" style="text;html=1;align=center;verticalAlign=middle;resizable=0;points=[];autosize=1;strokeColor=none;fillColor=none;" vertex="1" parent="mbKit9BLrTyehjeJolwP-166">
          <mxGeometry x="230" y="118" width="120" height="30" as="geometry" />
        </mxCell>
        <mxCell id="mbKit9BLrTyehjeJolwP-176" value="" style="endArrow=classic;html=1;rounded=0;" edge="1" parent="mbKit9BLrTyehjeJolwP-166">
          <mxGeometry width="50" height="50" relative="1" as="geometry">
            <mxPoint x="35" y="70.5" as="sourcePoint" />
            <mxPoint x="115" y="70" as="targetPoint" />
          </mxGeometry>
        </mxCell>
        <mxCell id="mbKit9BLrTyehjeJolwP-177" value="&lt;span style=&quot;font-size: 15px;&quot;&gt;&lt;b&gt;Avg Edu (F)&lt;/b&gt;&lt;/span&gt;" style="text;html=1;align=center;verticalAlign=middle;resizable=0;points=[];autosize=1;strokeColor=none;fillColor=none;" vertex="1" parent="mbKit9BLrTyehjeJolwP-166">
          <mxGeometry x="20" y="40" width="110" height="30" as="geometry" />
        </mxCell>
        <mxCell id="mbKit9BLrTyehjeJolwP-178" value="&lt;span style=&quot;font-size: 15px;&quot;&gt;&lt;b&gt;Youth Med Age&lt;/b&gt;&lt;/span&gt;" style="text;html=1;align=center;verticalAlign=middle;resizable=0;points=[];autosize=1;strokeColor=none;fillColor=none;" vertex="1" parent="mbKit9BLrTyehjeJolwP-166">
          <mxGeometry x="10" y="75" width="130" height="30" as="geometry" />
        </mxCell>
        <mxCell id="mbKit9BLrTyehjeJolwP-179" value="" style="endArrow=classic;html=1;rounded=0;" edge="1" parent="mbKit9BLrTyehjeJolwP-166">
          <mxGeometry width="50" height="50" relative="1" as="geometry">
            <mxPoint x="35" y="105.5" as="sourcePoint" />
            <mxPoint x="115" y="105" as="targetPoint" />
          </mxGeometry>
        </mxCell>
        <mxCell id="mbKit9BLrTyehjeJolwP-180" value="" style="group" vertex="1" connectable="0" parent="mbKit9BLrTyehjeJolwP-166">
          <mxGeometry y="105" width="120" height="30.5" as="geometry" />
        </mxCell>
        <mxCell id="mbKit9BLrTyehjeJolwP-181" value="" style="endArrow=classic;html=1;rounded=0;" edge="1" parent="mbKit9BLrTyehjeJolwP-180">
          <mxGeometry width="50" height="50" relative="1" as="geometry">
            <mxPoint x="40" y="30.5" as="sourcePoint" />
            <mxPoint x="120" y="30" as="targetPoint" />
          </mxGeometry>
        </mxCell>
        <mxCell id="mbKit9BLrTyehjeJolwP-182" value="&lt;span style=&quot;font-size: 15px;&quot;&gt;&lt;b&gt;Fertility Ratio&lt;/b&gt;&lt;/span&gt;" style="text;html=1;align=center;verticalAlign=middle;resizable=0;points=[];autosize=1;strokeColor=none;fillColor=none;" vertex="1" parent="mbKit9BLrTyehjeJolwP-180">
          <mxGeometry width="120" height="30" as="geometry" />
        </mxCell>
        <mxCell id="mbKit9BLrTyehjeJolwP-191" value="" style="endArrow=classic;html=1;rounded=0;fontStyle=1;strokeWidth=3;" edge="1" parent="1">
          <mxGeometry width="50" height="50" relative="1" as="geometry">
            <mxPoint x="410" y="230" as="sourcePoint" />
            <mxPoint x="610" y="340" as="targetPoint" />
          </mxGeometry>
        </mxCell>
        <mxCell id="mbKit9BLrTyehjeJolwP-192" value="" style="endArrow=classic;html=1;rounded=0;strokeWidth=3;" edge="1" parent="1">
          <mxGeometry width="50" height="50" relative="1" as="geometry">
            <mxPoint x="420" y="361.67" as="sourcePoint" />
            <mxPoint x="610" y="362" as="targetPoint" />
          </mxGeometry>
        </mxCell>
        <mxCell id="mbKit9BLrTyehjeJolwP-193" value="" style="endArrow=classic;html=1;rounded=0;strokeWidth=3;" edge="1" parent="1">
          <mxGeometry width="50" height="50" relative="1" as="geometry">
            <mxPoint x="400" y="515" as="sourcePoint" />
            <mxPoint x="610" y="380" as="targetPoint" />
          </mxGeometry>
        </mxCell>
      </root>
    </mxGraphModel>
  </diagram>
</mxfile>
